Coordinates
version=1
nRows=21
nColumns=22
inDegrees=yes

Units are S.I. units (second, meters, Newtons, ...)
If the header above contains a line with 'inDegrees', this indicates whether rotational values are in degrees (yes) or radians (no).

endheader
time	pelvis_tilt	pelvis_list	pelvis_rotation	pelvis_tx	pelvis_ty	pelvis_tz	hip_flexion_r	hip_adduction_r	hip_rotation_r	knee_angle_r	ankle_angle_r	subtalar_angle_r	hip_flexion_l	hip_adduction_l	hip_rotation_l	knee_angle_l	ankle_angle_l	subtalar_angle_l	lumbar_extension	lumbar_bending	lumbar_rotation
      1.41000000	    -13.38058147	      0.92065218	     -1.02991496	     -1.01421955	      0.96583829	     -0.27144477	     33.06401162	     -1.21823200	      1.30590396	    -43.54506820	     19.67327064	     -7.66632805	     18.05605361	      5.21727964	     -4.85657539	    -17.89309706	     22.12056328	     -1.76754021	      0.94902049	     -1.59943526	      4.17464524
      1.42000000	    -13.26161343	      0.95280874	     -1.00401184	     -1.01188221	      0.96580745	     -0.27186032	     33.68132815	     -1.30360276	      1.12682738	    -44.52355657	     19.57796163	     -7.73627322	     17.75905046	      5.29485662	     -4.82401650	    -17.85066341	     22.26177948	     -1.75274451	      0.75262769	     -1.58749894	      3.99536203
      1.43000000	    -13.13990731	      0.94252933	     -0.96332831	     -1.00946466	      0.96581061	     -0.27224412	     34.26640015	     -1.35167137	      0.92112057	    -45.34598081	     19.43552456	     -7.78409197	     17.47063371	      5.32655682	     -4.78363163	    -17.84229738	     22.43295564	     -1.74015503	      0.54748327	     -1.52636659	      3.79641065
      1.44000000	    -13.03501393	      0.91227448	     -0.89070996	     -1.00696711	      0.96580525	     -0.27263446	     34.84471121	     -1.40541258	      0.65426105	    -46.01634245	     19.27004331	     -7.82736190	     17.20175772	      5.34403628	     -4.70550736	    -17.84610222	     22.59312063	     -1.72398417	      0.35940600	     -1.44554215	      3.58643147
      1.45000000	    -12.97035395	      0.83526738	     -0.76146887	     -1.00438987	      0.96575867	     -0.27307958	     35.42550299	     -1.45719791	      0.28763614	    -46.51120782	     19.09566544	     -7.88616785	     16.98200809	      5.32814500	     -4.54286563	    -17.87264604	     22.73302609	     -1.70085627	      0.21717390	     -1.30895618	      3.33018632
      1.46000000	    -12.89396609	      0.74389003	     -0.64568432	     -1.00172511	      0.96572558	     -0.27345026	     35.97053112	     -1.48539348	     -0.07058144	    -46.84663081	     18.88911162	     -7.90066137	     16.76067420	      5.28576455	     -4.41438952	    -17.93204111	     22.91056334	     -1.68943320	      0.05485808	     -1.15666620	      3.09101622
      1.47000000	    -12.82015893	      0.63408310	     -0.51752764	     -0.99896833	      0.96568136	     -0.27377853	     36.48937726	     -1.50551728	     -0.45944537	    -47.02154885	     18.68444611	     -7.88178454	     16.54698404	      5.22197320	     -4.27217601	    -18.01189938	     23.09279191	     -1.68367720	     -0.10760731	     -0.98905573	      2.84946722
      1.48000000	    -12.74632803	      0.51261836	     -0.38769708	     -0.99611563	      0.96562008	     -0.27407076	     36.98294799	     -1.51812862	     -0.86264617	    -47.04418423	     18.48749913	     -7.83226271	     16.33671128	      5.14300894	     -4.12423180	    -18.11057312	     23.28171189	     -1.68617656	     -0.27365164	     -0.80751792	      2.61394629
      1.49000000	    -12.66863406	      0.38459617	     -0.26111567	     -0.99315273	      0.96554236	     -0.27431315	     37.44736921	     -1.52312159	     -1.27069476	    -46.92339730	     18.30236646	     -7.75768631	     16.12447355	      5.05286685	     -3.97685924	    -18.22593894	     23.47896454	     -1.69885308	     -0.44492278	     -0.61976769	      2.39005302
      1.50000000	    -12.57983930	      0.26860476	     -0.15200090	     -0.99009808	      0.96543799	     -0.27447001	     37.89172398	     -1.52311179	     -1.65053178	    -46.69010007	     18.11433769	     -7.67310403	     15.90300287	      4.96560270	     -3.84710585	    -18.35845674	     23.69450920	     -1.71981747	     -0.63543129	     -0.45122026	      2.18680406
      1.51000000	    -12.49100601	      0.11753523	     -0.03818629	     -0.98687469	      0.96532500	     -0.27460172	     38.29162643	     -1.49549772	     -2.06469941	    -46.30363212	     17.99028071	     -7.56138917	     15.67133763	      4.84116964	     -3.69868437	    -18.49293145	     23.88664059	     -1.75957857	     -0.81612357	     -0.23870434	      1.99151679
      1.52000000	    -12.38779708	      0.00030734	      0.04389364	     -0.98356485	      0.96517649	     -0.27462781	     38.67946485	     -1.46964496	     -2.41724083	    -45.83889549	     17.82616533	     -7.45739175	     15.42661660	      4.73963752	     -3.58215681	    -18.64300075	     24.11591997	     -1.80263731	     -1.02255538	     -0.07201622	      1.82853943
      1.53000000	    -12.27472701	     -0.12859217	      0.11108233	     -0.98010504	      0.96500760	     -0.27459639	     39.03605555	     -1.42186491	     -2.76688909	    -45.27581174	     17.68957644	     -7.34818542	     15.15939707	      4.61913104	     -3.47530833	    -18.78949371	     24.33411855	     -1.85640616	     -1.23561563	      0.11109707	      1.68440560
      1.54000000	    -12.15087667	     -0.24219608	      0.15334966	     -0.97652194	      0.96480795	     -0.27448025	     39.37249138	     -1.36588909	     -3.08285319	    -44.63812809	     17.54051733	     -7.23986191	     14.87236653	      4.50494233	     -3.39202364	    -18.93723155	     24.55915802	     -1.91597122	     -1.46235214	      0.27398224	      1.56861825
      1.55000000	    -12.02150825	     -0.33921923	      0.16945001	     -0.97281408	      0.96456685	     -0.27428193	     39.69601618	     -1.30514996	     -3.37372597	    -43.93889143	     17.37208773	     -7.13652374	     14.56912601	      4.39837132	     -3.33716419	    -19.08135919	     24.79213407	     -1.97527833	     -1.69524632	      0.41647536	      1.48025932
      1.56000000	    -11.89249819	     -0.41674007	      0.16090221	     -0.96899537	      0.96427038	     -0.27400326	     40.01565435	     -1.24358570	     -3.64420780	    -43.18949096	     17.17368828	     -7.03936274	     14.25619857	      4.30324047	     -3.31100167	    -19.22150761	     25.03746852	     -2.02883065	     -1.92896290	      0.53470350	      1.41781803
      1.57000000	    -11.76340472	     -0.47699780	      0.12745598	     -0.96506379	      0.96391739	     -0.27366034	     40.32928135	     -1.18220505	     -3.90314116	    -42.39686349	     16.95344601	     -6.94570278	     13.93481280	      4.21835577	     -3.31271442	    -19.36150468	     25.28907311	     -2.07501529	     -2.16287198	      0.63531327	      1.37701030
      1.58000000	    -11.63220988	     -0.52560507	      0.07399520	     -0.96099878	      0.96351690	     -0.27322768	     40.63074357	     -1.11802843	     -4.16833829	    -41.56638127	     16.72332896	     -6.84960955	     13.59276173	      4.13516025	     -3.35145657	    -19.48179529	     25.54847295	     -2.11201636	     -2.39688164	      0.71706936	      1.34513237
      1.59000000	    -11.52619409	     -0.53874029	     -0.00049497	     -0.95686341	      0.96300186	     -0.27273911	     40.96624277	     -1.07232536	     -4.41777170	    -40.72587023	     16.43570473	     -6.75503504	     13.27759887	      4.08635190	     -3.39679474	    -19.61503021	     25.83309422	     -2.13303347	     -2.60521568	      0.75848087	      1.34235001
      1.60000000	    -11.42534968	     -0.54298453	     -0.08700205	     -0.95261143	      0.96242013	     -0.27218796	     41.29936390	     -1.02705091	     -4.68346556	    -39.86729902	     16.13672509	     -6.64948390	     12.95926516	      4.04165997	     -3.45723413	    -19.74639609	     26.13339126	     -2.14408402	     -2.80553978	      0.78770063	      1.34595404
      1.61000000	    -11.33089884	     -0.53331370	     -0.18248463	     -0.94823341	      0.96176663	     -0.27158065	     41.63266203	     -0.98807759	     -4.96394339	    -39.00126466	     15.83192101	     -6.52860624	     12.63909887	      4.00840616	     -3.52235831	    -19.87848238	     26.44582444	     -2.14733931	     -2.99576815	      0.79920424	      1.35590126
